<svg xmlns="http://www.w3.org/2000/svg" width="512" height="512" style="overflow:visible" viewBox="0 0 512 512" data-bbox="48 185.56284961329874 378.12190151870414 140.87430077340252">
  <path text="Havruta" fill="#bfbfbf" space="preserve" text-anchor="start" offset="0" font-scale="contain" font-size="48" font-family="Ubuntu" transform="matrix(1.262266755104065, 0, 0, 1.262266755104065, 199.10069274902344, 247.6852264404297)" data-fl-textpath="" font-weight="700" font-style="normal" data-uid="o_f2h38b145_4" d="M 23.9-20.54L 23.9-33.26L 31.39-33.26L 31.39 0L 23.9 0L 23.9-14.11L 11.33-14.11L 11.33 0L 3.84 0L 3.84-33.26L 11.33-33.26L 11.33-20.54L 23.9-20.54ZM 48.242-4.99L 48.242-4.99Q 49.292-4.99  50.251999999999995-5.04Q 51.212-5.09  51.792-5.18L 51.792-5.18L 51.792-10.61Q 51.361999999999995-10.7  50.492-10.8Q 49.632-10.9  48.912-10.9L 48.912-10.9Q 47.902-10.9  47.012-10.78Q 46.132-10.66  45.452-10.32Q 44.782-9.98  44.402-9.41Q 44.012-8.83  44.012-7.97L 44.012-7.97Q 44.012-6.29  45.141999999999996-5.64Q 46.272-4.99  48.242-4.99ZM 47.662-25.92L 47.662-25.92Q 50.832-25.92  52.942-25.2Q 55.052-24.48  56.332-23.14Q 57.602000000000004-21.79  58.132-19.87Q 58.652-17.95  58.652-15.6L 58.652-15.6L 58.652-0.72Q 57.122-0.38  54.382 0.07Q 51.652 0.53  47.762 0.53L 47.762 0.53Q 45.312 0.53  43.322 0.1Q 41.332-0.34  39.891999999999996-1.32Q 38.452-2.3  37.682-3.89Q 36.912-5.47  36.912-7.78L 36.912-7.78Q 36.912-9.98  37.802-11.52Q 38.692-13.06  40.172-13.97Q 41.662-14.88  43.582-15.29Q 45.501999999999995-15.7  47.572-15.7L 47.572-15.7Q 48.962-15.7  50.042-15.58Q 51.122-15.46  51.792-15.26L 51.792-15.26L 51.792-15.94Q 51.792-17.76  50.692-18.86Q 49.582-19.97  46.852-19.97L 46.852-19.97Q 45.022-19.97  43.251999999999995-19.7Q 41.472-19.44  40.172-18.96L 40.172-18.96L 39.262-24.72Q 39.891999999999996-24.91  40.822-25.13Q 41.762-25.34  42.862-25.51Q 43.972-25.68  45.192-25.8Q 46.412-25.92  47.662-25.92ZM 77.332 0L 71.372 0Q 68.932-4.8  66.412-11.23Q 63.892-17.66  61.632-25.25L 61.632-25.25L 69.212-25.25Q 69.69200000000001-23.38  70.342-21.19Q 70.992-19.01  71.69200000000001-16.78Q 72.382-14.54  73.082-12.43Q 73.772-10.32  74.452-8.59L 74.452-8.59Q 75.072-10.32  75.792-12.43Q 76.512-14.54  77.212-16.78Q 77.902-19.01  78.55199999999999-21.19Q 79.202-23.38  79.682-25.25L 79.682-25.25L 87.072-25.25Q 84.812-17.66  82.292-11.23Q 79.772-4.8  77.332 0L 77.332 0ZM 107.33200000000001-24.82L 106.132-18.91Q 105.17200000000001-19.15  103.87200000000001-19.42Q 102.572-19.68  101.09200000000001-19.68L 101.09200000000001-19.68Q 100.412-19.68  99.482-19.56Q 98.542-19.44  98.06200000000001-19.3L 98.06200000000001-19.3L 98.06200000000001 0L 90.912 0L 90.912-23.9Q 92.83200000000001-24.58  95.45200000000001-25.18Q 98.06200000000001-25.78  101.28200000000001-25.78L 101.28200000000001-25.78Q 101.852-25.78  102.67200000000001-25.7Q 103.492-25.63  104.302-25.51Q 105.12200000000001-25.39  105.932-25.22Q 106.75200000000001-25.06  107.33200000000001-24.82L 107.33200000000001-24.82ZM 132.71800000000002-25.25L 132.71800000000002-0.86Q 130.898-0.34  128.018 0.12Q 125.138 0.58  121.968 0.58L 121.968 0.58Q 118.748 0.58  116.61800000000001-0.29Q 114.47800000000001-1.15  113.22800000000001-2.71Q 111.988-4.27  111.45800000000001-6.43Q 110.92800000000001-8.59  110.92800000000001-11.18L 110.92800000000001-11.18L 110.92800000000001-25.25L 118.078-25.25L 118.078-12.05Q 118.078-8.59  118.988-7.06Q 119.908-5.52  122.39800000000001-5.52L 122.39800000000001-5.52Q 123.168-5.52  124.028-5.59Q 124.89800000000001-5.66  125.56800000000001-5.76L 125.56800000000001-5.76L 125.56800000000001-25.25L 132.71800000000002-25.25ZM 139.20000000000002-10.32L 139.20000000000002-31.54L 146.35000000000002-32.69L 146.35000000000002-25.25L 154.94-25.25L 154.94-19.3L 146.35000000000002-19.3L 146.35000000000002-10.42Q 146.35000000000002-8.16  147.14000000000001-6.82Q 147.94-5.47  150.34-5.47L 150.34-5.47Q 151.49-5.47  152.71-5.69Q 153.94-5.9  154.94-6.29L 154.94-6.29L 155.95000000000002-0.72Q 154.66000000000003-0.19  153.07000000000002 0.19Q 151.49 0.58  149.18 0.58L 149.18 0.58Q 146.26000000000002 0.58  144.34-0.22Q 142.42000000000002-1.01  141.26000000000002-2.42Q 140.11-3.84  139.66000000000003-5.86Q 139.20000000000002-7.87  139.20000000000002-10.32L 139.20000000000002-10.32ZM 169.442-4.99L 169.442-4.99Q 170.49200000000002-4.99  171.45200000000003-5.04Q 172.412-5.09  172.99200000000002-5.18L 172.99200000000002-5.18L 172.99200000000002-10.61Q 172.562-10.7  171.692-10.8Q 170.83200000000002-10.9  170.11200000000002-10.9L 170.11200000000002-10.9Q 169.102-10.9  168.21200000000002-10.78Q 167.33200000000002-10.66  166.65200000000002-10.32Q 165.98200000000003-9.98  165.602-9.41Q 165.21200000000002-8.83  165.21200000000002-7.97L 165.21200000000002-7.97Q 165.21200000000002-6.29  166.342-5.64Q 167.472-4.99  169.442-4.99ZM 168.86200000000002-25.92L 168.86200000000002-25.92Q 172.032-25.92  174.14200000000002-25.2Q 176.252-24.48  177.532-23.14Q 178.80200000000002-21.79  179.33200000000002-19.87Q 179.85200000000003-17.95  179.85200000000003-15.6L 179.85200000000003-15.6L 179.85200000000003-0.72Q 178.322-0.38  175.58200000000002 0.07Q 172.85200000000003 0.53  168.96200000000002 0.53L 168.96200000000002 0.53Q 166.51200000000003 0.53  164.52200000000002 0.1Q 162.532-0.34  161.092-1.32Q 159.65200000000002-2.3  158.882-3.89Q 158.11200000000002-5.47  158.11200000000002-7.78L 158.11200000000002-7.78Q 158.11200000000002-9.98  159.002-11.52Q 159.89200000000002-13.06  161.372-13.97Q 162.86200000000002-14.88  164.782-15.29Q 166.70200000000003-15.7  168.77200000000002-15.7L 168.77200000000002-15.7Q 170.162-15.7  171.24200000000002-15.58Q 172.322-15.46  172.99200000000002-15.26L 172.99200000000002-15.26L 172.99200000000002-15.94Q 172.99200000000002-17.76  171.89200000000002-18.86Q 170.782-19.97  168.05200000000002-19.97L 168.05200000000002-19.97Q 166.222-19.97  164.45200000000003-19.7Q 162.67200000000003-19.44  161.372-18.96L 161.372-18.96L 160.46200000000002-24.72Q 161.092-24.91  162.02200000000002-25.13Q 162.96200000000002-25.34  164.062-25.51Q 165.17200000000003-25.68  166.39200000000002-25.8Q 167.61200000000002-25.92  168.86200000000002-25.92Z"/>
  <g transform="matrix(0.8196180462837219, 0, 0, 0.8196180462837219, 8.658332824707031, 73.50799560546875)" data-uid="o_f2h38b145_5">
    <g transform="matrix(1.9531590938568115, 0, 0, 1.9531590938568115, 27.580556869506836, 124.99699401855469)" fill="#333747" data-uid="o_f2h38b145_6">
      <path d="M53.6 15.2c-1-4.4 2.8-8.2 7.2-7.2c2.2 0.5 4 2.3 4.5 4.5c1 4.4-2.8 8.2-7.2 7.2C55.9 19.2 54.1 17.4 53.6 15.2z M77.2 71.3  c-3.4-0.5-6.2 2.4-5.7 5.7c0.3 2.1 2 3.8 4.1 4.1c3.4 0.5 6.2-2.4 5.7-5.7C81.1 73.4 79.3 71.6 77.2 71.3z M50.2 42.5  c-4.1 0-7.5 3.4-7.5 7.5s3.4 7.5 7.5 7.5s7.5-3.4 7.5-7.5S54.3 42.5 50.2 42.5z M81 50c7.4 8.3 10.5 16.5 7.3 22  c-1 1.8-2.7 3.2-4.8 4.2c0-1.1-0.3-2.1-0.7-3c1.3-0.7 2.3-1.6 3-2.7c2.5-4.3-0.4-11.1-6.7-18.3c-2.9 3-6.3 5.9-10 8.6  c-0.5 4.7-1.3 9.1-2.4 13c1.1 0.2 2.2 0.4 3.2 0.6c-0.2 0.6-0.3 1.2-0.3 1.9c0 0.4 0 0.8 0.1 1.1c-1.3-0.2-2.6-0.4-3.9-0.7  C62.1 87.3 56.6 94 50.2 94c-6.4 0-11.9-6.7-15.4-17.3c-1.4 0.3-2.8 0.5-4.1 0.7c-1.8 0.2-3.5 0.3-5.1 0.3c-6.6 0-11.3-2-13.5-5.7  c-1.2-2.1-1.5-4.6-1-7.3c0.8 0.6 1.8 1 2.9 1c-0.2 1.8 0 3.5 0.8 4.8c2 3.5 7.7 4.9 15.6 3.9c1.2-0.2 2.4-0.4 3.6-0.6  c-1.1-3.9-1.9-8.3-2.4-13c-3.8-2.7-7.1-5.6-10.1-8.6c-0.8 0.9-1.6 1.9-2.3 2.8c-0.1 0.2-0.2 0.3-0.4 0.5c-0.6-0.6-1.3-1-2-1.3  c-0.1-0.3-0.1-0.4-0.2-0.7c0.9-1.2 1.8-2.3 2.8-3.5c-1-1.1-1.9-2.1-2.7-3.2C11 39.3 9.4 32.7 12.1 28c2.7-4.7 9.3-6.6 18.6-5.4  c1.3 0.2 2.7 0.4 4.1 0.7C38.2 12.7 43.8 6 50.2 6c1.6 0 3.2 0.4 4.7 1.3c-0.9 0.6-1.6 1.4-2.2 2.2C51.9 9.2 51 9 50.2 9  c-4.9 0-9.5 5.9-12.5 15c4 1 8.2 2.5 12.5 4.4c4.2-1.9 8.5-3.4 12.5-4.4c-0.3-0.8-0.6-1.7-0.9-2.5c1-0.3 1.9-0.8 2.7-1.4  c0.4 1 0.8 2.1 1.2 3.2c1.4-0.3 2.8-0.5 4.1-0.7c9.3-1.2 15.9 0.7 18.6 5.4c2.7 4.7 1.1 11.3-4.6 18.8C82.9 47.8 82 48.9 81 50z   M66.5 26.2c1.1 3.9 1.9 8.3 2.4 13c3.8 2.8 7.2 5.7 10.1 8.6c0.8-0.9 1.6-1.9 2.3-2.8c4.8-6.3 6.4-12 4.4-15.5  c-1.6-2.8-5.5-4.2-10.9-4.2c-1.4 0-3 0.1-4.7 0.3C68.9 25.7 67.7 25.9 66.5 26.2z M53.8 30.1c2 1 4 2.1 6 3.2c2 1.2 3.9 2.3 5.7 3.6  c-0.5-3.6-1.2-6.9-2-10C60.4 27.7 57.1 28.7 53.8 30.1z M66 40.8c-2.4-1.7-5-3.4-7.7-5c-2.7-1.6-5.4-3-8.1-4.2  c-2.7 1.2-5.4 2.7-8.1 4.2c-2.7 1.6-5.3 3.2-7.7 4.9c-0.3 3-0.4 6-0.4 9.2c0 3.1 0.2 6.2 0.4 9.2c2.4 1.7 5 3.4 7.7 4.9  c2.7 1.6 5.4 3 8.1 4.2c2.7-1.2 5.4-2.7 8.1-4.2c2.7-1.6 5.3-3.2 7.7-4.9c0.3-3 0.4-6 0.4-9.2C66.5 46.9 66.3 43.8 66 40.8z   M36.8 26.8c-0.9 3.1-1.5 6.4-2 10c1.8-1.2 3.8-2.4 5.7-3.6c2-1.1 4-2.2 6-3.2C43.2 28.7 40 27.6 36.8 26.8z M19.1 45  c0.7 0.9 1.5 1.9 2.3 2.8c2.9-3 6.3-5.9 10.1-8.6c0.5-4.7 1.3-9.1 2.4-13c-1.2-0.3-2.4-0.5-3.6-0.6c-1.7-0.2-3.2-0.3-4.7-0.3  c-5.4 0-9.3 1.5-10.9 4.2C12.6 33 14.2 38.6 19.1 45z M31.1 56.8c-0.1-2.2-0.2-4.5-0.2-6.8c0-2.3 0.1-4.6 0.2-6.8  c-2.8 2.2-5.4 4.5-7.7 6.8C25.7 52.3 28.3 54.6 31.1 56.8z M36.8 73.2c3.1-0.8 6.4-1.9 9.7-3.2c-2-1-4-2.1-6-3.2  c-2-1.1-3.9-2.3-5.7-3.6C35.3 66.7 36 70.1 36.8 73.2z M62.7 76c-4-1-8.2-2.5-12.5-4.4c-4.3 1.9-8.5 3.4-12.5 4.4  c3 9.1 7.5 15 12.5 15C55.1 91 59.6 85.1 62.7 76z M65.6 63.1c-1.8 1.2-3.8 2.4-5.7 3.6c-2 1.1-4 2.2-6 3.2c3.3 1.3 6.6 2.4 9.7 3.2  C64.4 70.1 65.1 66.7 65.6 63.1z M76.9 50c-2.2-2.3-4.8-4.6-7.7-6.8c0.1 2.2 0.2 4.5 0.2 6.8c0 2.3-0.1 4.6-0.2 6.8  C72.1 54.6 74.6 52.3 76.9 50z M13.8 63.7c2.7 0.4 5-1.9 4.6-4.6c-0.3-1.7-1.6-3.1-3.3-3.3c-2.7-0.4-5 1.9-4.6 4.6  C10.8 62.1 12.1 63.4 13.8 63.7z" transform="matrix(1, 0, 0, 1, 0, 0)" fill="#bae637" data-uid="o_f2h38b145_7"/>
    </g>
    <path transform="matrix(0.16042782366275787, 0, 0, 0.16042782366275787, 117.3463363647461, 214.6293182373047)" data-type="circle" data-cx="50" data-cy="50" data-r="50" d="M50 50m-50 0a50 50 0 1 0 100 0a50 50 0 1 0 -100 0" fill="#40bf8e" data-uid="o_f2h38b145_8"/>
    <path transform="matrix(0.08217416703701019, 0, 0, 0.08217416703701019, 172.4744415283203, 269.7574462890625)" fill="#40bf8e" data-type="circle" data-cx="50" data-cy="50" data-r="50" d="M50 50m-50 0a50 50 0 1 0 100 0a50 50 0 1 0 -100 0" data-uid="o_f2h38b145_9"/>
    <path transform="matrix(0.11053752899169922, 0, 0, 0.11053752899169922, 138.0159454345703, 146.51744079589844)" fill="#40bf8e" data-type="circle" data-cx="50" data-cy="50" data-r="50" d="M50 50m-50 0a50 50 0 1 0 100 0a50 50 0 1 0 -100 0" data-uid="o_f2h38b145_10"/>
    <path transform="matrix(0.06109251454472542, 0, 0, 0.06109251454472542, 52.60169982910156, 238.7217559814453)" fill="#40bf8e" data-type="circle" data-cx="50" data-cy="50" data-r="50" d="M50 50m-50 0a50 50 0 1 0 100 0a50 50 0 1 0 -100 0" data-uid="o_f2h38b145_11"/>
  </g>
  <path text="DAO" fill="#bfbfbf" space="preserve" text-anchor="start" offset="0" font-scale="contain" font-size="48" font-family="Ubuntu" transform="matrix(1.262266755104065, 0, 0, 1.262266755104065, 199.10069274902344, 306.4239807128906)" data-fl-textpath="" font-weight="700" font-style="normal" data-uid="o_f2h38b145_12" d="M 11.33-27.12L 11.33-6.1Q 11.86-6.05  12.55-6.02Q 13.25-6  14.21-6L 14.21-6Q 19.82-6  22.54-8.83Q 25.25-11.66  25.25-16.66L 25.25-16.66Q 25.25-21.89  22.66-24.58Q 20.06-27.26  14.45-27.26L 14.45-27.26Q 13.68-27.26  12.86-27.24Q 12.05-27.22  11.33-27.12L 11.33-27.12ZM 32.98-16.66L 32.98-16.66Q 32.98-12.34  31.63-9.12Q 30.29-5.9  27.82-3.79Q 25.34-1.68  21.79-0.62Q 18.24 0.43  13.82 0.43L 13.82 0.43Q 11.81 0.43  9.12 0.26Q 6.43 0.1  3.84-0.43L 3.84-0.43L 3.84-32.83Q 6.43-33.31  9.24-33.48Q 12.05-33.65  14.06-33.65L 14.06-33.65Q 18.34-33.65  21.82-32.69Q 25.3-31.73  27.79-29.66Q 30.29-27.6  31.63-24.38Q 32.98-21.17  32.98-16.66ZM 68.306 0L 60.285999999999994 0Q 59.75599999999999-1.73  59.116-3.55Q 58.465999999999994-5.38  57.836-7.2L 57.836-7.2L 44.87599999999999-7.2Q 44.25599999999999-5.38  43.605999999999995-3.55Q 42.955999999999996-1.73  42.43599999999999 0L 42.43599999999999 0L 34.65599999999999 0Q 36.525999999999996-5.38  38.205999999999996-9.94Q 39.885999999999996-14.5  41.495999999999995-18.53Q 43.105999999999995-22.56  44.666-26.18Q 46.226-29.81  47.90599999999999-33.26L 47.90599999999999-33.26L 55.056-33.26Q 56.68599999999999-29.81  58.275999999999996-26.18Q 59.855999999999995-22.56  61.465999999999994-18.53Q 63.07599999999999-14.5  64.756-9.94Q 66.43599999999999-5.38  68.306 0L 68.306 0ZM 51.315999999999995-25.73L 51.315999999999995-25.73Q 51.07599999999999-25.01  50.596-23.76Q 50.11599999999999-22.51  49.486-20.88Q 48.86599999999999-19.25  48.11599999999999-17.28Q 47.37599999999999-15.31  46.605999999999995-13.15L 46.605999999999995-13.15L 56.065999999999995-13.15Q 55.29599999999999-15.31  54.57599999999999-17.28Q 53.855999999999995-19.25  53.205999999999996-20.88Q 52.556-22.51  52.07599999999999-23.76Q 51.596-25.01  51.315999999999995-25.73ZM 77.714-16.66L 77.714-16.66Q 77.714-14.21  78.31400000000001-12.24Q 78.914-10.27  80.04400000000001-8.86Q 81.164-7.44  82.804-6.67Q 84.434-5.9  86.54400000000001-5.9L 86.54400000000001-5.9Q 88.604-5.9  90.26400000000001-6.67Q 91.924-7.44  93.04400000000001-8.86Q 94.174-10.27  94.774-12.24Q 95.374-14.21  95.374-16.66L 95.374-16.66Q 95.374-19.1  94.774-21.1Q 94.174-23.09  93.04400000000001-24.5Q 91.924-25.92  90.26400000000001-26.69Q 88.604-27.46  86.54400000000001-27.46L 86.54400000000001-27.46Q 84.434-27.46  82.804-26.66Q 81.164-25.87  80.04400000000001-24.46Q 78.914-23.04  78.31400000000001-21.05Q 77.714-19.06  77.714-16.66ZM 103.10400000000001-16.66L 103.10400000000001-16.66Q 103.10400000000001-12.38  101.834-9.14Q 100.564-5.9  98.354-3.72Q 96.144-1.54  93.09400000000001-0.43Q 90.04400000000001 0.67  86.54400000000001 0.67L 86.54400000000001 0.67Q 83.134 0.67  80.114-0.43Q 77.084-1.54  74.834-3.72Q 72.574-5.9  71.284-9.14Q 69.98400000000001-12.38  69.98400000000001-16.66L 69.98400000000001-16.66Q 69.98400000000001-20.93  71.324-24.17Q 72.674-27.41  74.95400000000001-29.62Q 77.23400000000001-31.82  80.23400000000001-32.93Q 83.23400000000001-34.03  86.54400000000001-34.03L 86.54400000000001-34.03Q 89.95400000000001-34.03  92.974-32.93Q 96.004-31.82  98.254-29.62Q 100.51400000000001-27.41  101.804-24.17Q 103.10400000000001-20.93  103.10400000000001-16.66Z"/>
</svg>
