<svg xmlns="http://www.w3.org/2000/svg" width="512" height="512" style="overflow: visible;" viewBox="0 0 512 512" data-svgdocument="" id="_MmB6E0ceOyEQmbhvIvf7D" class="fl-svgdocument" x="0" y="0" overflow="hidden"><defs id="_YYPKfrRDit0a5nbyJgt3T" transform="matrix(1.1093109502341207, 0, 0, 1.1093109502341207, -36.33387908666941, 194.82674920283807)" data-uid="o_f2h3g0k30_4"></defs><path text="Havruta DAO" text-anchor="middle" font-size="100" letter-spacing="0" side="left" offset="0.5" dx="0" dy="0" space="preserve" href="" font-family="Bungee" font-scale="contain" transform="matrix(0.5096165320548576, 0, 0, 0.5096165320548576, 255.77066633967038, 310.85668230530473)" x="0" y="0" fill="rgba(186, 230, 55, 1)" data-fl-textpath="" id="_xA6riAWthiQASy2IgmxLE" data-uid="o_f2h3g0k30_5" d="M-347.8500000000001 0L-347.8500000000001 0L-363.3500000000001 0Q-365.25000000000006 0 -366.1000000000001-0.85Q-366.9500000000001-1.7 -366.9500000000001-3.6L-366.9500000000001-3.6L-366.9500000000001-68.4Q-366.9500000000001-70.3 -366.1000000000001-71.15Q-365.25000000000006-72 -363.3500000000001-72L-363.3500000000001-72L-347.8500000000001-72Q-345.9500000000001-72 -345.1000000000001-71.15Q-344.25000000000006-70.3 -344.25000000000006-68.4L-344.25000000000006-68.4L-344.25000000000006-46.7L-327.55000000000007-46.7L-327.55000000000007-68.4Q-327.55000000000007-70.3 -326.7000000000001-71.15Q-325.8500000000001-72 -323.9500000000001-72L-323.9500000000001-72L-308.45000000000005-72Q-306.55000000000007-72 -305.70000000000005-71.15Q-304.8500000000001-70.3 -304.8500000000001-68.4L-304.8500000000001-68.4L-304.8500000000001-3.6Q-304.8500000000001-1.7 -305.70000000000005-0.85Q-306.55000000000007 0 -308.45000000000005 0L-308.45000000000005 0L-323.9500000000001 0Q-325.8500000000001 0 -326.7000000000001-0.85Q-327.55000000000007-1.7 -327.55000000000007-3.6L-327.55000000000007-3.6L-327.55000000000007-25.8L-344.25000000000006-25.8L-344.25000000000006-3.6Q-344.25000000000006-1.7 -345.1000000000001-0.85Q-345.9500000000001 0 -347.8500000000001 0ZM-264.95000000000005-51L-264.95000000000005-51L-269.65000000000003-35.8L-253.95000000000005-35.8L-258.65000000000003-51Q-259.05000000000007-51.9 -259.50000000000006-52.3Q-259.95000000000005-52.7 -260.55000000000007-52.7L-260.55000000000007-52.7L-263.05000000000007-52.7Q-263.65000000000003-52.7 -264.1-52.3Q-264.55000000000007-51.9 -264.95000000000005-51ZM-270.65000000000003-17.6L-270.65000000000003-3.6Q-270.65000000000003-1.7 -271.50000000000006-0.85Q-272.35 0 -274.25000000000006 0L-274.25000000000006 0L-288.95000000000005 0Q-290.85 0 -291.70000000000005-0.85Q-292.55000000000007-1.7 -292.55000000000007-3.6L-292.55000000000007-3.6L-292.55000000000007-30Q-292.55000000000007-33 -291.6-36.9Q-290.65000000000003-40.8 -288.65000000000003-46L-288.65000000000003-46L-279.95000000000005-68.7Q-279.35-70.4 -278.1-71.2Q-276.85-72 -274.85-72L-274.85-72L-247.95000000000005-72Q-246.05000000000004-72 -244.80000000000004-71.2Q-243.55000000000004-70.4 -242.95000000000005-68.7L-242.95000000000005-68.7L-234.25000000000006-46Q-232.25000000000006-40.8 -231.30000000000004-36.9Q-230.35000000000005-33 -230.35000000000005-30L-230.35000000000005-30L-230.35000000000005-3.6Q-230.35000000000005-1.7 -231.20000000000005-0.85Q-232.05000000000004 0 -233.95000000000005 0L-233.95000000000005 0L-249.05000000000004 0Q-251.05000000000004 0 -252.00000000000006-0.85Q-252.95000000000005-1.7 -252.95000000000005-3.6L-252.95000000000005-3.6L-252.95000000000005-17.6L-270.65000000000003-17.6ZM-176.45000000000005 0L-176.45000000000005 0L-202.45000000000005 0Q-204.35000000000005 0 -205.60000000000005-0.7Q-206.85000000000005-1.4 -207.55000000000004-3.3L-207.55000000000004-3.3L-217.35000000000005-27.8Q-218.25000000000006-30 -218.85000000000005-31.65Q-219.45000000000005-33.3 -219.85000000000005-34.8Q-220.25000000000006-36.3 -220.40000000000003-37.95Q-220.55000000000004-39.6 -220.55000000000004-42L-220.55000000000004-42L-220.55000000000004-68.4Q-220.55000000000004-70.3 -219.70000000000005-71.15Q-218.85000000000005-72 -216.95000000000005-72L-216.95000000000005-72L-201.05000000000004-72Q-199.15000000000003-72 -198.15000000000003-71.15Q-197.15000000000003-70.3 -197.15000000000003-68.4L-197.15000000000003-68.4L-197.15000000000003-40.8Q-197.15000000000003-39.8 -196.95000000000005-38.8Q-196.75000000000006-37.8 -196.35000000000005-36.7L-196.35000000000005-36.7L-191.65000000000003-22.7Q-191.35000000000005-21.7 -190.95000000000005-21.35Q-190.55000000000004-21 -189.75000000000006-21L-189.75000000000006-21L-188.65000000000003-21Q-187.85000000000005-21 -187.45000000000005-21.35Q-187.05000000000004-21.7 -186.75000000000006-22.7L-186.75000000000006-22.7L-182.05000000000004-36.8Q-181.65000000000003-37.9 -181.45000000000005-38.9Q-181.25000000000006-39.9 -181.25000000000006-40.9L-181.25000000000006-40.9L-181.25000000000006-68.4Q-181.25000000000006-70.3 -180.40000000000003-71.15Q-179.55000000000004-72 -177.65000000000003-72L-177.65000000000003-72L-161.95000000000005-72Q-160.05000000000004-72 -159.20000000000005-71.15Q-158.35000000000005-70.3 -158.35000000000005-68.4L-158.35000000000005-68.4L-158.35000000000005-42Q-158.35000000000005-39.6 -158.50000000000006-37.95Q-158.65000000000003-36.3 -159.05000000000004-34.8Q-159.45000000000005-33.3 -160.05000000000004-31.65Q-160.65000000000003-30 -161.55000000000004-27.8L-161.55000000000004-27.8L-171.35000000000005-3.3Q-172.05000000000004-1.4 -173.30000000000004-0.7Q-174.55000000000004 0 -176.45000000000005 0ZM-115.95000000000005-54L-123.45000000000005-54L-123.45000000000005-41.2L-115.95000000000005-41.2Q-113.35000000000005-41.2 -112.45000000000005-42.55Q-111.55000000000004-43.9 -111.55000000000004-45.9L-111.55000000000004-45.9L-111.55000000000004-49.3Q-111.55000000000004-51.3 -112.45000000000005-52.65Q-113.35000000000005-54 -115.95000000000005-54L-115.95000000000005-54ZM-127.05000000000004 0L-127.05000000000004 0L-142.45000000000005 0Q-144.35000000000005 0 -145.20000000000005-0.85Q-146.05000000000004-1.7 -146.05000000000004-3.6L-146.05000000000004-3.6L-146.05000000000004-68.4Q-146.05000000000004-70.3 -145.20000000000005-71.15Q-144.35000000000005-72 -142.45000000000005-72L-142.45000000000005-72L-109.15000000000005-72Q-97.95000000000005-72 -93.70000000000005-67.35Q-89.45000000000005-62.7 -89.45000000000005-55.3L-89.45000000000005-55.3L-89.45000000000005-50.7Q-89.45000000000005-46.5 -90.70000000000005-43.55Q-91.95000000000005-40.6 -95.05000000000004-39.3L-95.05000000000004-39.3Q-89.65000000000005-38.7 -86.30000000000004-34.9Q-82.95000000000005-31.1 -82.95000000000005-24.8L-82.95000000000005-24.8L-82.95000000000005-3.6Q-82.95000000000005-1.7 -83.80000000000004-0.85Q-84.65000000000005 0 -86.55000000000004 0L-86.55000000000004 0L-102.05000000000004 0Q-103.95000000000005 0 -104.80000000000004-0.85Q-105.65000000000005-1.7 -105.65000000000005-3.6L-105.65000000000005-3.6L-105.65000000000005-18.9Q-105.65000000000005-21.1 -106.50000000000004-22.15Q-107.35000000000005-23.2 -109.45000000000005-23.2L-109.45000000000005-23.2L-123.45000000000005-23.2L-123.45000000000005-3.6Q-123.45000000000005-1.7 -124.30000000000004-0.85Q-125.15000000000005 0 -127.05000000000004 0ZM-10.450000000000045-68.4L-10.450000000000045-18.9Q-10.450000000000045-14.3 -11.800000000000054-10.55Q-13.150000000000048-6.8 -16.60000000000005-4.15Q-20.050000000000047-1.5 -26.050000000000047 0Q-32.05000000000005 1.5 -41.35000000000005 1.5L-41.35000000000005 1.5Q-50.65000000000005 1.5 -56.65000000000005 0Q-62.65000000000005-1.5 -66.10000000000005-4.15Q-69.55000000000005-6.8 -70.90000000000005-10.55Q-72.25000000000004-14.3 -72.25000000000004-18.9L-72.25000000000004-18.9L-72.25000000000004-68.4Q-72.25000000000004-70.3 -71.40000000000005-71.15Q-70.55000000000005-72 -68.65000000000005-72L-68.65000000000005-72L-52.950000000000045-72Q-51.05000000000005-72 -50.200000000000045-71.15Q-49.35000000000005-70.3 -49.35000000000005-68.4L-49.35000000000005-68.4L-49.35000000000005-22.8Q-49.35000000000005-20.8 -47.85000000000005-19.45Q-46.35000000000005-18.1 -41.15000000000005-18.1L-41.15000000000005-18.1Q-35.85000000000005-18.1 -34.35000000000005-19.45Q-32.85000000000005-20.8 -32.85000000000005-22.8L-32.85000000000005-22.8L-32.85000000000005-68.4Q-32.85000000000005-70.3 -32.00000000000005-71.15Q-31.15000000000005-72 -29.25000000000005-72L-29.25000000000005-72L-14.050000000000054-72Q-12.150000000000048-72 -11.300000000000054-71.15Q-10.450000000000045-70.3 -10.450000000000045-68.4L-10.450000000000045-68.4ZM 36.84999999999996 0L 36.84999999999996 0L 20.64999999999996 0Q 18.74999999999996 0  17.89999999999996-0.85Q 17.04999999999996-1.7  17.04999999999996-3.6L 17.04999999999996-3.6L 17.04999999999996-52.7L 2.3499999999999606-52.7Q 0.4499999999999602-52.7 -0.4000000000000399-53.55Q-1.25000000000004-54.4 -1.25000000000004-56.3L-1.25000000000004-56.3L-1.25000000000004-68.4Q-1.25000000000004-70.3 -0.4000000000000399-71.15Q 0.4499999999999602-72  2.3499999999999606-72L 2.3499999999999606-72L 55.14999999999996-72Q 57.04999999999996-72  57.89999999999996-71.15Q 58.74999999999996-70.3  58.74999999999996-68.4L 58.74999999999996-68.4L 58.74999999999996-56.3Q 58.74999999999996-54.4  57.89999999999996-53.55Q 57.04999999999996-52.7  55.14999999999996-52.7L 55.14999999999996-52.7L 40.44999999999996-52.7L 40.44999999999996-3.6Q 40.44999999999996-1.7  39.59999999999996-0.85Q 38.74999999999996 0  36.84999999999996 0ZM 90.54999999999997-51L 90.54999999999997-51L 85.84999999999997-35.8L 101.54999999999997-35.8L 96.84999999999997-51Q 96.44999999999996-51.9  95.99999999999997-52.3Q 95.54999999999997-52.7  94.94999999999996-52.7L 94.94999999999996-52.7L 92.44999999999996-52.7Q 91.84999999999997-52.7  91.39999999999998-52.3Q 90.94999999999996-51.9  90.54999999999997-51ZM 84.84999999999997-17.6L 84.84999999999997-3.6Q 84.84999999999997-1.7  83.99999999999997-0.85Q 83.14999999999998 0  81.24999999999997 0L 81.24999999999997 0L 66.54999999999997 0Q 64.64999999999996 0  63.79999999999997-0.85Q 62.94999999999997-1.7  62.94999999999997-3.6L 62.94999999999997-3.6L 62.94999999999997-30Q 62.94999999999997-33  63.89999999999997-36.9Q 64.84999999999997-40.8  66.84999999999997-46L 66.84999999999997-46L 75.54999999999997-68.7Q 76.14999999999998-70.4  77.39999999999998-71.2Q 78.64999999999998-72  80.64999999999998-72L 80.64999999999998-72L 107.54999999999997-72Q 109.44999999999996-72  110.69999999999996-71.2Q 111.94999999999996-70.4  112.54999999999997-68.7L 112.54999999999997-68.7L 121.24999999999997-46Q 123.24999999999997-40.8  124.19999999999997-36.9Q 125.14999999999996-33  125.14999999999996-30L 125.14999999999996-30L 125.14999999999996-3.6Q 125.14999999999996-1.7  124.29999999999997-0.85Q 123.44999999999997 0  121.54999999999997 0L 121.54999999999997 0L 106.44999999999996 0Q 104.44999999999996 0  103.49999999999997-0.85Q 102.54999999999997-1.7  102.54999999999997-3.6L 102.54999999999997-3.6L 102.54999999999997-17.6L 84.84999999999997-17.6ZM 196.74999999999994 0L 196.74999999999994 0L 163.04999999999995 0Q 161.14999999999995 0  160.29999999999995-0.85Q 159.44999999999996-1.7  159.44999999999996-3.6L 159.44999999999996-3.6L 159.44999999999996-68.4Q 159.44999999999996-70.3  160.29999999999995-71.15Q 161.14999999999995-72  163.04999999999995-72L 163.04999999999995-72L 196.74999999999994-72Q 209.24999999999994-72  215.29999999999995-67Q 221.34999999999997-62  221.34999999999997-51.6L 221.34999999999997-51.6L 221.34999999999997-20.4Q 221.34999999999997-10  215.29999999999995-5Q 209.24999999999994 0  196.74999999999994 0ZM 194.04999999999995-52.9L 182.14999999999995-52.9L 182.14999999999995-18.9L 194.04999999999995-18.9Q 196.44999999999996-18.9  197.59999999999997-20.1Q 198.74999999999994-21.3  198.74999999999994-23.8L 198.74999999999994-23.8L 198.74999999999994-48.1Q 198.74999999999994-50.6  197.59999999999997-51.75Q 196.44999999999996-52.9  194.04999999999995-52.9L 194.04999999999995-52.9ZM 260.15-51L 260.15-51L 255.45-35.8L 271.15-35.8L 266.45-51Q 266.04999999999995-51.9  265.59999999999997-52.3Q 265.15-52.7  264.54999999999995-52.7L 264.54999999999995-52.7L 262.04999999999995-52.7Q 261.45-52.7  261-52.3Q 260.54999999999995-51.9  260.15-51ZM 254.45-17.6L 254.45-3.6Q 254.45-1.7  253.59999999999997-0.85Q 252.74999999999997 0  250.84999999999997 0L 250.84999999999997 0L 236.14999999999998 0Q 234.24999999999997 0  233.39999999999998-0.85Q 232.54999999999998-1.7  232.54999999999998-3.6L 232.54999999999998-3.6L 232.54999999999998-30Q 232.54999999999998-33  233.49999999999997-36.9Q 234.45-40.8  236.45-46L 236.45-46L 245.14999999999998-68.7Q 245.74999999999997-70.4  246.99999999999997-71.2Q 248.24999999999997-72  250.24999999999997-72L 250.24999999999997-72L 277.15-72Q 279.04999999999995-72  280.29999999999995-71.2Q 281.54999999999995-70.4  282.15-68.7L 282.15-68.7L 290.84999999999997-46Q 292.84999999999997-40.8  293.79999999999995-36.9Q 294.75-33  294.75-30L 294.75-30L 294.75-3.6Q 294.75-1.7  293.9-0.85Q 293.04999999999995 0  291.15 0L 291.15 0L 276.04999999999995 0Q 274.04999999999995 0  273.09999999999997-0.85Q 272.15-1.7  272.15-3.6L 272.15-3.6L 272.15-17.6L 254.45-17.6ZM 368.04999999999995-53L 368.04999999999995-18.9Q 368.04999999999995-14.3  366.7-10.55Q 365.34999999999997-6.8  361.9-4.15Q 358.45-1.5  352.4 0Q 346.34999999999997 1.5  337.04999999999995 1.5L 337.04999999999995 1.5Q 327.75 1.5  321.65 0Q 315.54999999999995-1.5  312.09999999999997-4.15Q 308.65-6.8  307.29999999999995-10.55Q 305.95-14.3  305.95-18.9L 305.95-18.9L 305.95-53Q 305.95-57.6  307.29999999999995-61.35Q 308.65-65.1  312.09999999999997-67.8Q 315.54999999999995-70.5  321.65-72Q 327.75-73.5  337.04999999999995-73.5L 337.04999999999995-73.5Q 346.34999999999997-73.5  352.4-72Q 358.45-70.5  361.9-67.8Q 365.34999999999997-65.1  366.7-61.35Q 368.04999999999995-57.6  368.04999999999995-53L 368.04999999999995-53ZM 328.65-49.4L 328.65-22.5Q 328.65-20.5  330.15-19.15Q 331.65-17.8  337.04999999999995-17.8L 337.04999999999995-17.8Q 342.45-17.8  343.95-19.15Q 345.45-20.5  345.45-22.5L 345.45-22.5L 345.45-49.4Q 345.45-51.3  343.95-52.65Q 342.45-54  337.04999999999995-54L 337.04999999999995-54Q 331.65-54  330.15-52.65Q 328.65-51.3  328.65-49.4L 328.65-49.4Z"></path><g id="_GvBf88V9EXUZcbxRn0JbO" transform="matrix(1.0139057843470312, 0, 0, 1.0139057843470312, -13.394241147670883, 25.035521625051793)" data-uid="o_f2h3g0k30_6"><path id="_nRsHa3KCTOLINlMaRKhqr" d="M5.833 37.065c0 0-4.161 33.195 30.567 33.195C36.4 70.26 45.055 37.065 5.833 37.065z" fill="#759e33" transform="matrix(1.1525787115097046, 0, 0, 1.1525787115097046, 342.72943115234375, 145.2017059326172)" data-uid="o_f2h3g0k30_7"></path><path id="_Jy6n4JrFOUmux1QtMYY6D" d="M94.074 23.155c-47.241 0-51.611 29.712-50.744 44.967c7.981-23.02 29.738-28.101 29.738-28.101   c-20.77 12.557-25.03 35.225-25.307 36.825C100.514 74.81 94.074 23.155 94.074 23.155z" fill="#79ba11" transform="matrix(1.1525787115097046, 0, 0, 1.1525787115097046, 342.0838928222656, 146.2505645751953)" data-uid="o_f2h3g0k30_8"></path></g></svg>