<svg xmlns="http://www.w3.org/2000/svg" width="512" height="512" style="overflow: visible;" viewBox="0 0 512 512" data-svgdocument="" id="_yG2vhvLQlfePrAC3cgtnH" class="fl-svgdocument" x="0" y="0"><defs id="_KQCeRa1kjF5EEkl57u7jq" transform="matrix(0.9654406569505669, 0, 0, 0.9654406569505669, -27.806939385984588, 146.0829597168475)" data-uid="o_f2h3e576b_5"></defs><g id="_G77tQqkvKaIjLPP1zvf6-" transform="matrix(0.8125000720753583, 0, 0, 0.8125000720753583, -36.335772066560274, 43.53811334521938)" data-uid="o_f2h3e576b_6"><path id="_ydfe2HsHtWAndjEmzDht-" d="M85.31 51.6l-1.36-1.71a2.24 2.24 0 0 1-.38-2l2.13-7.21a3.22 3.22 0 0 0-1.47-3.74l-4.4-2.43a2 2 0 0 0-2.16.12l-.58.4a3.27 3.27 0 0 0-1.2 3.73L78 44.93a.6.6 0 0 1-.88.73l-.51-.35A3.28 3.28 0 0 0 73.37 45l-7.05 3.35a1.25 1.25 0 0 0-.51 1.78l.31.5a1.13 1.13 0 0 0 1.37.47l5.17-2a1.63 1.63 0 0 1 1.81.45 1.7 1.7 0 0 1 .3 1.77l-1.28 3.14A6.4 6.4 0 0 1 70.16 58l-1.32.77A9 9 0 0 1 57 56.17h0a1.14 1.14 0 0 0-1.31-.43l-.77.26a1.24 1.24 0 0 0-.78 1.45L55 61.37a.52.52 0 0 1-1 .34l-1.43-2.95a1.88 1.88 0 0 0-2.56-.89l-1.58.8a1.25 1.25 0 0 0-.62 1.46l1.33 4.6a8.48 8.48 0 0 0 5.23 5.68 7.94 7.94 0 0 0 6-.27l16.94-6.84a3.5 3.5 0 0 0 5.18-1.12l1.24-2.27 2-4.68A3.59 3.59 0 0 0 85.31 51.6Z" stroke="none" fill="#de852c" transform="matrix(2.3559587001800537, 0, 0, 2.3559587001800537, 136.16319274902344, 93.81596374511719)" stroke-width="1" data-uid="o_f2h3e576b_7"></path><path id="_GvLUf1wxrt-h0w8q-yvko" d="M63.79 46.55l1.89.13a3.54 3.54 0 0 0 3.43-2.1l.64-1.39a7.21 7.21 0 0 0 .66-2.83l.09-3.42a2.45 2.45 0 0 0-2.35-2.57l-4.34-.09a2.85 2.85 0 0 0-2.66 1.78l-2.11 5a.92.92 0 0 1-1.48.34l-1-1a8.26 8.26 0 0 0-2.84-1.77L45 35.44a1.16 1.16 0 0 0-1.46.66l-1.2 2.78A1.22 1.22 0 0 0 43 40.52l7.09 2.55a.59.59 0 0 1 .09 1l-4 2.48a2.13 2.13 0 0 1-2.43-.14l-7.55-5.9A1.13 1.13 0 0 0 35 40.43l-2.47 1.21a1.23 1.23 0 0 0-.39 1.91l4.19 4.9a.25.25 0 0 1-.3.38l-7.59-4a1.14 1.14 0 0 0-1.48.39l-2.12 3.12a1.23 1.23 0 0 0 .54 1.84l12 4.5a21.15 21.15 0 0 0 15 0l3.39-1.29a2.94 2.94 0 0 1 3.12 1l.85 1a5.69 5.69 0 0 0 6.63 1.65L71.15 55a1.24 1.24 0 0 0 .73-1.32l-.19-1.39a1.15 1.15 0 0 0-1.59-.93l-3.49 1.54A1.93 1.93 0 0 1 64 51.73L62.74 48A1.07 1.07 0 0 1 63.79 46.55Z" stroke="none" fill="#bf57d9" transform="matrix(2.3559587001800537, 0, 0, 2.3559587001800537, 137.67137145996094, 92.56665802001953)" stroke-width="1" data-uid="o_f2h3e576b_8"></path><path id="_ONgVWvkXzjiz_tI48VPQq" d="M75.59 67.27a1.13 1.13 0 0 0-1.49.15l-3 3.13h0a3.63 3.63 0 0 0-4.56-1.17l-6.25 3.06a9.41 9.41 0 0 1-6.3.73l-1.32-.31a9.11 9.11 0 0 1-6.76-7.11l-.84-4A3 3 0 0 0 43 59.36l-10.53-2.9a1.18 1.18 0 0 0-1.46 1l-.29 2.29a1.2 1.2 0 0 0 .79 1.3l6.73 2.2a1.92 1.92 0 0 1 1.29 1.79L39.6 69a.7.7 0 0 1-1.25.48l-3.14-4.31a2.38 2.38 0 0 0-2.64-.89l-3.07.95A2.17 2.17 0 0 0 28 67.3l0 2.39a3.75 3.75 0 0 0 1.71 3.12L33.22 75a.48.48 0 0 1-.32.89L30 75.53a4.45 4.45 0 0 1-3.63-3l-1.83-5.1a1.14 1.14 0 0 0-1.33-.75L22 67a1.24 1.24 0 0 0-.88 1.54l2.05 7.26a8.41 8.41 0 0 0 4.94 5.58l4.84 1.92a7.13 7.13 0 0 0 2.2.42h1.08a51.46 51.46 0 0 1 9.38 1l3.45.78a19.48 19.48 0 0 0 12.71-1.46l2.8-1.34A30 30 0 0 0 77.85 70.25h0a1.24 1.24 0 0 0-.34-1.6Z" stroke="none" fill="#2e997b" transform="matrix(2.3559587001800537, 0, 0, 2.3559587001800537, 137.78065490722656, 94.5848617553711)" stroke-width="1" data-uid="o_f2h3e576b_9"></path><path id="_KpbEtRPObQ7octvRVt6xW" d="M26.89 62l1-3.28A2.38 2.38 0 0 0 27 56l-3-2.05a4.52 4.52 0 0 1-1.9-4.23A9.31 9.31 0 0 1 25 43.89l1.65-1.54a3.27 3.27 0 0 0 .79-3.67l-.34-.8L28.52 37a4.91 4.91 0 0 1 4.5-.41l5 2.06a1.15 1.15 0 0 0 1.46-.56L41 35.16a1.23 1.23 0 0 0-.49-1.66l-6.23-3.26a6.53 6.53 0 0 0-6 0l-3.69 1.85a.26.26 0 0 1-.33-.37L25 30.55a12.72 12.72 0 0 1 5.18-5L33 24a1.25 1.25 0 0 0 .61-1.43l-.93-3.4a1.14 1.14 0 0 0-1.57-.77l-5.47 2.46a10.45 10.45 0 0 0-3.78 2.9l-3.13 3.8a18.51 18.51 0 0 0-3.36 6.22l-.33 1a21.9 21.9 0 0 0 1.46 17.43 2.22 2.22 0 0 1 .37 1.63L16.23 58a4.24 4.24 0 0 0 3.11 4.87l4.28 1A2.79 2.79 0 0 0 26.89 62Z" stroke="none" fill="#5c65cc" transform="matrix(2.3559587001800537, 0, 0, 2.3559587001800537, 137.06085205078125, 94.87202453613281)" stroke-width="1" data-uid="o_f2h3e576b_10"></path><path id="_Dzo4oPdtm03jIxYwBmCBx" d="M35.4 19.52a1.14 1.14 0 0 0 1.37.71L41.23 19a.32.32 0 0 1 .29.56l-1.7 2.67a5.14 5.14 0 0 0 .53 6.21 3.87 3.87 0 0 0 4.92 0l4.35-3.62a.93.93 0 0 1 1.52.42l1.19 3.91a.57.57 0 0 1-.56.74l-4.9-.32a1.19 1.19 0 0 0-1.2.89l-.22.77a1.21 1.21 0 0 0 .8 1.5l4.93 1.4A4.4 4.4 0 0 0 53.87 34l1.77-.63A1.39 1.39 0 0 0 56.54 32l-.15-4.57a.64.64 0 0 1 .83-.65l5.67 2a7.64 7.64 0 0 1 2.94 1.89L67.6 32.5a1.13 1.13 0 0 0 1.21.27L70 32.35a1.25 1.25 0 0 0 .64-1.75l-1.23-2.29A4.13 4.13 0 0 0 68 26.84l-3.21-2.18 3.64 1.52a3.46 3.46 0 0 1 1.67 1.48l3.23 5.65a1.13 1.13 0 0 0 1.44.49l2-.85a1.25 1.25 0 0 0 .64-1.61l-.75-2.21a21 21 0 0 0-5.23-8.29 15.71 15.71 0 0 0-10.2-4.43l-5.58-.27a16.91 16.91 0 0 1-3-.35L44.09 14a2.77 2.77 0 0 0-1.38.07l-7.16 2.21a1.24 1.24 0 0 0-.77 1.63Z" stroke="none" fill="#34a5cf" transform="matrix(2.3559587001800537, 0, 0, 2.3559587001800537, 138.67135620117188, 94.53549194335938)" stroke-width="1" data-uid="o_f2h3e576b_11"></path></g><path id="_R57GQfuf0kBfsEEsU0JZS" fill="rgba(191, 191, 191, 1)" transform="matrix(0.5734338102970112, 0, 0, 0.5734338102970112, 289.8549303173673, 305.7236034164238)" text="HAVRUTA" text-anchor="middle" font-size="100" letter-spacing="0" side="left" offset="0.5" dx="0" dy="0" space="preserve" href="" font-family="Lilita One" font-scale="contain" x="0" y="0" data-fl-textpath="" data-uid="o_f2h3e576b_12" d="M-154.1-67.8L-154.1-1.7Q-154.1 0 -164.2 0Q-174.3 0 -174.3-1.7L-174.3-1.7L-174.3-24.7L-188.3-24.7L-188.3-1.7Q-188.3 0 -198.4 0Q-208.5 0 -208.5-1.7L-208.5-1.7L-208.5-68Q-208.5-70.1 -198.4-70.1Q-188.3-70.1 -188.3-68L-188.3-68L-188.3-44.5L-174.3-44.5L-174.3-67.8Q-174.3-69.2 -169.3-69.8L-169.3-69.8Q-166.7-70 -164.2-70L-164.2-70L-159.1-69.8Q-154.1-69.2 -154.1-67.8L-154.1-67.8ZM-97.1 0.2L-97.1 0.2Q-105.8 0.2 -106.5-2.6L-106.5-2.6L-109.8-15.5L-125.69999999999999-15.5L-128.6-3.1Q-129.2 0 -138.2 0L-138.2 0Q-143 0 -145.29999999999998-0.55Q-147.6-1.1 -147.6-1.4L-147.6-1.4L-129.9-69.1Q-129.9-69.9 -116.19999999999999-69.9Q-102.5-69.9 -102.5-69.1L-102.5-69.1L-85.19999999999999-1.3Q-85.19999999999999-0.6 -89.8-0.2Q-94.39999999999999 0.2 -97.1 0.2ZM-117.8-48.9L-123.19999999999999-28.2L-112.69999999999999-28.2L-117.19999999999999-48.9L-117.8-48.9ZM-69-2.1L-86.5-68.7Q-86.5-69.2 -82.14999999999999-69.65Q-77.8-70.1 -75-70.1L-75-70.1Q-63.89999999999999-70.1 -63.39999999999999-67.2L-63.39999999999999-67.2L-54.8-23.2L-46.699999999999996-67.2Q-46.099999999999994-70.1 -34.3-70.1L-34.3-70.1Q-31.39999999999999-70.1 -26.999999999999993-69.7Q-22.599999999999994-69.3 -22.599999999999994-68.8L-22.599999999999994-68.8L-40.3-2.6Q-40.699999999999996-1 -46.199999999999996-0.5L-46.199999999999996-0.5Q-54.699999999999996 0.4 -61.64999999999999-0.15Q-68.6-0.7 -69-2.1L-69-2.1ZM 2.6000000000000156-24.1L 2.6000000000000156-1.4Q 2.6000000000000156 0.2 -6.899999999999986 0.2L-6.899999999999986 0.2Q-16.499999999999986 0.2 -16.499999999999986-1.3L-16.499999999999986-1.3L-16.499999999999986-66.5Q-16.499999999999986-70 -12.799999999999986-70L-12.799999999999986-70L 6.300000000000015-70Q 32.600000000000016-70  32.600000000000016-49.5L 32.600000000000016-49.5Q 32.600000000000016-43.3  30.200000000000017-38.25Q 27.80000000000001-33.2  23.400000000000013-30.2L 23.400000000000013-30.2L 36.000000000000014-9.2Q 35.20000000000002-6.8  30.80000000000001-3.7L 30.80000000000001-3.7Q 24.80000000000001 0.6  20.900000000000013 0.6Q 17.000000000000014 0.6  15.100000000000016-2.2L 15.100000000000016-2.2L 5.7000000000000135-24.1L 2.6000000000000156-24.1ZM 4.7000000000000135-52.3L 2.6000000000000156-52.3L 2.6000000000000156-37.3L 3.1000000000000156-37.3Q 12.600000000000016-37.3  12.600000000000016-45.2L 12.600000000000016-45.2Q 12.600000000000016-48.8  10.750000000000014-50.55Q 8.900000000000013-52.3  4.7000000000000135-52.3L 4.7000000000000135-52.3ZM 75.20000000000002-22.8L 75.20000000000002-68Q 75.20000000000002-70  86.05000000000001-70Q 96.9-70  96.9-68L 96.9-68L 96.9-22.1Q 96.9-11.9  89.60000000000002-5.45Q 82.30000000000001 1  69.45000000000002 1Q 56.600000000000016 1  48.55000000000001-5.65Q 40.500000000000014-12.3  40.500000000000014-23.6L 40.500000000000014-23.6L 40.500000000000014-67.9Q 40.500000000000014-69.9  51.350000000000016-69.9Q 62.20000000000002-69.9  62.20000000000002-67.9L 62.20000000000002-67.9L 62.20000000000002-22.8Q 62.20000000000002-20.8  64.30000000000001-19.6L 64.30000000000001-19.6Q 66.50000000000001-18.4  68.9-18.4Q 71.30000000000001-18.4  73.25000000000001-19.5Q 75.20000000000002-20.6  75.20000000000002-22.8L 75.20000000000002-22.8ZM 135.4-51.8L 135.4-1.6Q 135.4 0.4  125.50000000000001 0.4Q 115.60000000000001 0.4  115.60000000000001-1.6L 115.60000000000001-1.6L 115.60000000000001-51.8L 103.60000000000001-51.8Q 101.9-51.8  101.20000000000002-56.4L 101.20000000000002-56.4Q 100.9-58.6  100.9-60.9Q 100.9-63.2  101.20000000000002-65.4L 101.20000000000002-65.4Q 101.9-70  103.60000000000001-70L 103.60000000000001-70L 147.10000000000002-70Q 148.8-70  149.5-65.4L 149.5-65.4Q 149.8-63.2  149.8-60.9Q 149.8-58.6  149.5-56.4L 149.5-56.4Q 148.8-51.8  147.10000000000002-51.8L 147.10000000000002-51.8L 135.4-51.8ZM 200 0.2L 200 0.2Q 191.3 0.2  190.6-2.6L 190.6-2.6L 187.3-15.5L 171.4-15.5L 168.5-3.1Q 167.9 0  158.9 0L 158.9 0Q 154.1 0  151.8-0.55Q 149.5-1.1  149.5-1.4L 149.5-1.4L 167.2-69.1Q 167.2-69.9  180.9-69.9Q 194.6-69.9  194.6-69.1L 194.6-69.1L 211.9-1.3Q 211.9-0.6  207.3-0.2Q 202.7 0.2  200 0.2ZM 179.3-48.9L 173.9-28.2L 184.4-28.2L 179.9-48.9L 179.3-48.9Z"></path><path id="_R57GQfuf0kBfsEEsU0JZS" fill="rgba(191, 191, 191, 1)" transform="matrix(0.5734338102970112, 0, 0, 0.5734338102970112, 223.8240261866759, 355.0294429974446)" text="DAO" text-anchor="middle" font-size="100" letter-spacing="0" side="left" offset="0.5" dx="0" dy="0" space="preserve" href="" font-family="Lilita One" font-scale="contain" x="0" y="0" data-fl-textpath="" data-uid="o_f2h3e576b_19" d="M-93.35-4.6L-93.35-4.6L-93.35-64.6Q-93.35-67.1 -92.1-68.55Q-90.85-70 -88.85-70L-88.85-70L-72.14999999999999-70Q-56.24999999999999-70 -47.99999999999999-62Q-39.74999999999999-54 -39.74999999999999-36.8L-39.74999999999999-36.8Q-39.74999999999999 0 -71.14999999999999 0L-71.14999999999999 0L-88.25 0Q-93.35 0 -93.35-4.6ZM-73.14999999999999-51L-74.14999999999999-51L-74.14999999999999-21.1Q-74.14999999999999-19 -73.85-18.45Q-73.55-17.9 -72.05-17.9L-72.05-17.9Q-66.55-17.9 -63.699999999999996-22Q-60.849999999999994-26.1 -60.849999999999994-35.65Q-60.849999999999994-45.2 -63.8-48.1Q-66.75-51 -73.14999999999999-51L-73.14999999999999-51ZM 15.250000000000007 0.2L 15.250000000000007 0.2Q 6.550000000000004 0.2  5.8500000000000085-2.6L 5.8500000000000085-2.6L 2.5500000000000043-15.5L-13.349999999999994-15.5L-16.249999999999993-3.1Q-16.849999999999994 0 -25.849999999999994 0L-25.849999999999994 0Q-30.64999999999999 0 -32.949999999999996-0.55Q-35.24999999999999-1.1 -35.24999999999999-1.4L-35.24999999999999-1.4L-17.549999999999994-69.1Q-17.549999999999994-69.9 -3.8499999999999943-69.9Q 9.850000000000009-69.9  9.850000000000009-69.1L 9.850000000000009-69.1L 27.150000000000006-1.3Q 27.150000000000006-0.6  22.550000000000004-0.2Q 17.95000000000001 0.2  15.250000000000007 0.2ZM-5.449999999999992-48.9L-10.849999999999994-28.2L-0.3499999999999943-28.2L-4.849999999999994-48.9L-5.449999999999992-48.9ZM 63.50000000000001 1Q 49.45 1  40.60000000000001-8.2Q 31.750000000000007-17.4  31.750000000000007-35.05Q 31.750000000000007-52.7  40.7-61.8Q 49.650000000000006-70.9  63.800000000000004-70.9Q 77.95000000000002-70.9  86.65-61.95Q 95.35-53  95.35-34.85Q 95.35-16.7  86.45000000000002-7.85Q 77.55000000000001 1  63.50000000000001 1ZM 63.550000000000004-51.7Q 58.75000000000001-51.7  55.50000000000001-47.3Q 52.25000000000001-42.9  52.25000000000001-34.95Q 52.25000000000001-27  55.35000000000001-22.75Q 58.45-18.5  63.50000000000001-18.5Q 68.55000000000001-18.5  71.70000000000002-22.8Q 74.85000000000001-27.1  74.85000000000001-35.1Q 74.85000000000001-43.1  71.60000000000001-47.4Q 68.35000000000001-51.7  63.550000000000004-51.7Z"></path></svg>