<svg xmlns="http://www.w3.org/2000/svg" width="512" height="512" style="overflow: visible;" viewBox="0 0 512 512" data-svgdocument="" id="_BM0fv_aJ_ZZWWYek1ZRVa" class="fl-svgdocument" x="0" y="0" overflow="hidden"><defs id="_FEUZazGX9lR-u9GOcn4pe" transform="matrix(0.6700014267171159, 0, 0, 0.6700014267171159, -62.16123401007557, 131.28755294568455)" data-uid="o_f2h3an4ln_4"></defs><g id="_CZsm_wCQ7c3IgxeylXQiM" transform="matrix(0.953211874551302, 0, 0, 0.953211874551302, 16.127705470236315, 20.28014239529233)" data-uid="o_f2h3an4ln_5"><path id="_nYrdhAiyt-4ci4TBfdLLz" d="M47.69 90.25c-0.069 0-0.14-0.006-0.21-0.02l-34.722-6.439c-0.624-0.115-1.036-0.715-0.921-1.34   c0.116-0.623 0.717-1.037 1.34-0.92l33.245 6.164l-1.82-22.307l-18.92-53.09c-0.214-0.598 0.099-1.256 0.697-1.469   c0.598-0.213 1.255 0.099 1.469 0.697L46.819 64.76c0.033 0.094 0.055 0.191 0.062 0.293l1.955 23.953   c0.028 0.357-0.11 0.707-0.376 0.947C48.248 90.145 47.973 90.25 47.69 90.25z" fill="rgba(234,255,143,1)" transform="matrix(2.3875880241394043, 0, 0, 2.3875880241394043, 24.424518585205078, 128.12120056152344)" data-uid="o_f2h3an4ln_6"></path><path id="_7-TNYczNWwjvDZVmHMsj0" d="M47.689 90.25c-0.183 0-0.367-0.043-0.54-0.135c-0.561-0.301-0.772-0.996-0.474-1.557l33.803-63.391   c0.299-0.56 0.995-0.772 1.556-0.474c0.56 0.299 0.771 0.996 0.474 1.556L48.705 89.641C48.498 90.029 48.101 90.25 47.689 90.25z" fill="rgba(211,242,97,1)" transform="matrix(2.3875880241394043, 0, 0, 2.3875880241394043, 23.89333724975586, 128.6082305908203)" data-uid="o_f2h3an4ln_7"></path><path id="_HmtDiMQRhI5IEVQ9RVaWU" d="M45.737 66.295c-0.077 0-0.155-0.008-0.233-0.023l0 0c-0.001 0-0.002 0-0.002 0c-0.017-0.004-0.032-0.008-0.047-0.012l0 0   c-0.003 0-0.004 0-0.006-0.002l0 0c-0.213-0.055-0.396-0.164-0.539-0.312L10.716 31.75L6.281 55.965   c-0.114 0.625-0.714 1.037-1.338 0.924c-0.625-0.115-1.038-0.715-0.924-1.338l4.829-26.37c0.076-0.42 0.381-0.763 0.788-0.891   c0.408-0.127 0.854-0.018 1.155 0.285l34.292 34.292l9.896-42.656l-28.495-7.184c-0.526-0.132-0.888-0.614-0.868-1.156   s0.416-0.997 0.949-1.091l32.653-5.749c0.38-0.067 0.769 0.062 1.033 0.341c0.266 0.28 0.373 0.675 0.286 1.051l-2.81 12.109   l24.046 6.062c0.391 0.099 0.702 0.396 0.819 0.782c0.116 0.386 0.022 0.806-0.249 1.105L46.603 65.9   c-0.065 0.076-0.141 0.143-0.224 0.197c0 0.002-0.001 0.002-0.001 0.002c-0.001 0-0.001 0-0.002 0l-0.001 0.002   c-0.001 0-0.001 0-0.001 0c-0.017 0.012-0.032 0.021-0.049 0.031c-0.001 0-0.001 0-0.001 0c-0.001 0-0.001 0-0.002 0.002h-0.001   c-0.001 0-0.001 0-0.001 0C46.146 66.238 45.945 66.295 45.737 66.295z M57.209 20.773l-9.354 40.323l31.499-34.74L57.209 20.773z    M32.262 12.112l23.237 5.858l2.406-10.373L32.262 12.112z" fill="rgba(186,230,55,1)" transform="matrix(2.3875880241394043, 0, 0, 2.3875880241394043, 23.886180877685547, 128.81785583496094)" data-uid="o_f2h3an4ln_8"></path><path id="_-g4FECiGjDeGPmN7mAvTs" d="M12.968 83.811c-0.145 0-0.287-0.027-0.419-0.078c-0.101-0.041-0.197-0.094-0.285-0.162   c-0.15-0.117-0.273-0.273-0.353-0.457c-0.02-0.047-0.037-0.096-0.05-0.143L4.046 56.078c-0.136-0.471 0.039-0.975 0.438-1.258   l51.203-36.386c0.455-0.323 1.075-0.273 1.473 0.117s0.457 1.01 0.143 1.47L16.579 79.428l28.615-15.297   c0.166-0.088 0.353-0.135 0.542-0.135h46.606L80.492 26.358L58.655 7.024c-0.475-0.421-0.52-1.147-0.098-1.623   c0.42-0.475 1.147-0.52 1.622-0.099l22.075 19.545c0.156 0.139 0.272 0.317 0.335 0.516l12.417 39.437   c0.109 0.348 0.047 0.729-0.17 1.023c-0.217 0.297-0.561 0.471-0.927 0.471H46.024L13.532 83.664   c-0.051 0.027-0.104 0.053-0.159 0.074c-0.069 0.025-0.141 0.045-0.212 0.057C13.097 83.807 13.032 83.811 12.968 83.811z    M6.482 56.221l6.912 23.785l38.356-55.953L6.482 56.221z" fill="rgba(244,255,184,1)" transform="matrix(2.3875880241394043, 0, 0, 2.3875880241394043, 23.98843765258789, 128.7154083251953)" data-uid="o_f2h3an4ln_9"></path><path id="_lH_QpX3A2RgCO2VtGtMus" fill="rgba(186,230,55,1)" transform="matrix(2.3875880241394043, 0, 0, 2.3875880241394043, 24.87227439880371, 128.0879364013672)" data-type="circle" data-cx="55.538" data-cy="19.677" data-r="4.901" d="M55.538,19.677m-4.901,0a4.901,4.901 0 1, 0 9.802,0a4.901,4.901 0 1, 0 -9.802,0" data-uid="o_f2h3an4ln_10"></path><path id="_zwePDHih4GevDIq5w3Req" fill="rgba(211,242,97,1)" transform="matrix(2.3875880241394043, 0, 0, 2.3875880241394043, 25.028173446655273, 128.2785186767578)" data-type="circle" data-cx="23.472" data-cy="42.596" data-r="4.9" d="M23.472,42.596m-4.9,0a4.9,4.9 0 1, 0 9.8,0a4.9,4.9 0 1, 0 -9.8,0" data-uid="o_f2h3an4ln_11"></path><path id="__bp6clTczT-DT51RP1Js7" fill="rgba(244,255,184,1)" transform="matrix(2.3875880241394043, 0, 0, 2.3875880241394043, 24.40011978149414, 129.35693359375)" data-type="circle" data-cx="45.736" data-cy="65.145" data-r="4.901" d="M45.736,65.145m-4.901,0a4.901,4.901 0 1, 0 9.802,0a4.901,4.901 0 1, 0 -9.802,0" data-uid="o_f2h3an4ln_12"></path><path id="_4I73MY35XrjAje_94NhqE" fill="rgba(234,255,143,1)" transform="matrix(2.3875880241394043, 0, 0, 2.3875880241394043, 23.846981048583984, 128.12213134765625)" data-type="circle" data-cx="12.968" data-cy="82.662" data-r="4.901" d="M12.968,82.662m-4.901,0a4.901,4.901 0 1, 0 9.802,0a4.901,4.901 0 1, 0 -9.802,0" data-uid="o_f2h3an4ln_13"></path><path id="_Em4M5ckx9HQ3l5_UxbT-2" fill="rgba(234,255,143,1)" transform="matrix(2.3875880241394043, 0, 0, 2.3875880241394043, 24.331098556518555, 128.38638305664062)" data-type="circle" data-cx="81.493" data-cy="25.552" data-r="4.901" d="M81.493,25.552m-4.901,0a4.901,4.901 0 1, 0 9.802,0a4.901,4.901 0 1, 0 -9.802,0" data-uid="o_f2h3an4ln_14"></path><path id="_MuuO6Z994e7NcdK4w4UM3" fill="rgba(211,242,97,1)" transform="matrix(2.3875880241394043, 0, 0, 2.3875880241394043, 24.50743865966797, 129.4617462158203)" data-type="circle" data-cx="47.69" data-cy="89.1" data-r="4.9" d="M47.69,89.1m-4.9,0a4.9,4.9 0 1, 0 9.8,0a4.9,4.9 0 1, 0 -9.8,0" data-uid="o_f2h3an4ln_15"></path></g><path id="_Z0YrQ9icz1cHOvm_GQPbH" fill="#bae637" transform="matrix(0.6146143766648257, 0, 0, 0.6146143766648257, 155.21773329505476, 296.10198188787814)" text="Havruta" text-anchor="start" font-size="100" letter-spacing="0" side="left" offset="0" dx="0" dy="0" space="preserve" href="" font-family="Bungee" font-scale="contain" x="0" y="0" data-fl-textpath="" data-uid="o_f2h3an4ln_16" d="M 26 0L 26 0L 10.5 0Q 8.6 0  7.75-0.85Q 6.9-1.7  6.9-3.6L 6.9-3.6L 6.9-68.4Q 6.9-70.3  7.75-71.15Q 8.6-72  10.5-72L 10.5-72L 26-72Q 27.9-72  28.75-71.15Q 29.6-70.3  29.6-68.4L 29.6-68.4L 29.6-46.7L 46.3-46.7L 46.3-68.4Q 46.3-70.3  47.15-71.15Q 48-72  49.9-72L 49.9-72L 65.4-72Q 67.3-72  68.15-71.15Q 69-70.3  69-68.4L 69-68.4L 69-3.6Q 69-1.7  68.15-0.85Q 67.3 0  65.4 0L 65.4 0L 49.9 0Q 48 0  47.15-0.85Q 46.3-1.7  46.3-3.6L 46.3-3.6L 46.3-25.8L 29.6-25.8L 29.6-3.6Q 29.6-1.7  28.75-0.85Q 27.9 0  26 0ZM 108.9-51L 108.9-51L 104.2-35.8L 119.9-35.8L 115.2-51Q 114.80000000000001-51.9  114.35000000000001-52.3Q 113.9-52.7  113.30000000000001-52.7L 113.30000000000001-52.7L 110.80000000000001-52.7Q 110.2-52.7  109.75-52.3Q 109.30000000000001-51.9  108.9-51ZM 103.2-17.6L 103.2-3.6Q 103.2-1.7  102.35000000000001-0.85Q 101.5 0  99.60000000000001 0L 99.60000000000001 0L 84.9 0Q 83 0  82.15-0.85Q 81.30000000000001-1.7  81.30000000000001-3.6L 81.30000000000001-3.6L 81.30000000000001-30Q 81.30000000000001-33  82.25-36.9Q 83.2-40.8  85.2-46L 85.2-46L 93.9-68.7Q 94.5-70.4  95.75-71.2Q 97-72  99-72L 99-72L 125.9-72Q 127.80000000000001-72  129.05-71.2Q 130.3-70.4  130.9-68.7L 130.9-68.7L 139.60000000000002-46Q 141.60000000000002-40.8  142.55-36.9Q 143.5-33  143.5-30L 143.5-30L 143.5-3.6Q 143.5-1.7  142.65-0.85Q 141.8 0  139.9 0L 139.9 0L 124.80000000000001 0Q 122.80000000000001 0  121.85000000000001-0.85Q 120.9-1.7  120.9-3.6L 120.9-3.6L 120.9-17.6L 103.2-17.6ZM 197.4 0L 197.4 0L 171.4 0Q 169.5 0  168.25-0.7Q 167-1.4  166.3-3.3L 166.3-3.3L 156.5-27.8Q 155.6-30  155-31.65Q 154.4-33.3  154-34.8Q 153.6-36.3  153.45000000000002-37.95Q 153.3-39.6  153.3-42L 153.3-42L 153.3-68.4Q 153.3-70.3  154.15-71.15Q 155-72  156.9-72L 156.9-72L 172.8-72Q 174.70000000000002-72  175.70000000000002-71.15Q 176.70000000000002-70.3  176.70000000000002-68.4L 176.70000000000002-68.4L 176.70000000000002-40.8Q 176.70000000000002-39.8  176.9-38.8Q 177.1-37.8  177.5-36.7L 177.5-36.7L 182.2-22.7Q 182.5-21.7  182.9-21.35Q 183.3-21  184.10000000000002-21L 184.10000000000002-21L 185.2-21Q 186-21  186.4-21.35Q 186.8-21.7  187.10000000000002-22.7L 187.10000000000002-22.7L 191.8-36.8Q 192.2-37.9  192.4-38.9Q 192.60000000000002-39.9  192.60000000000002-40.9L 192.60000000000002-40.9L 192.60000000000002-68.4Q 192.60000000000002-70.3  193.45-71.15Q 194.3-72  196.2-72L 196.2-72L 211.9-72Q 213.8-72  214.65-71.15Q 215.5-70.3  215.5-68.4L 215.5-68.4L 215.5-42Q 215.5-39.6  215.35000000000002-37.95Q 215.2-36.3  214.8-34.8Q 214.4-33.3  213.8-31.65Q 213.2-30  212.3-27.8L 212.3-27.8L 202.5-3.3Q 201.8-1.4  200.55-0.7Q 199.3 0  197.4 0ZM 257.9-54L 250.4-54L 250.4-41.2L 257.9-41.2Q 260.5-41.2  261.4-42.55Q 262.3-43.9  262.3-45.9L 262.3-45.9L 262.3-49.3Q 262.3-51.3  261.4-52.65Q 260.5-54  257.9-54L 257.9-54ZM 246.8 0L 246.8 0L 231.4 0Q 229.5 0  228.65-0.85Q 227.8-1.7  227.8-3.6L 227.8-3.6L 227.8-68.4Q 227.8-70.3  228.65-71.15Q 229.5-72  231.4-72L 231.4-72L 264.7-72Q 275.9-72  280.15-67.35Q 284.4-62.7  284.4-55.3L 284.4-55.3L 284.4-50.7Q 284.4-46.5  283.15-43.55Q 281.9-40.6  278.8-39.3L 278.8-39.3Q 284.2-38.7  287.55-34.9Q 290.9-31.1  290.9-24.8L 290.9-24.8L 290.9-3.6Q 290.9-1.7  290.05-0.85Q 289.2 0  287.3 0L 287.3 0L 271.8 0Q 269.9 0  269.05-0.85Q 268.2-1.7  268.2-3.6L 268.2-3.6L 268.2-18.9Q 268.2-21.1  267.35-22.15Q 266.5-23.2  264.4-23.2L 264.4-23.2L 250.4-23.2L 250.4-3.6Q 250.4-1.7  249.55-0.85Q 248.70000000000002 0  246.8 0ZM 363.4-68.4L 363.4-18.9Q 363.4-14.3  362.04999999999995-10.55Q 360.7-6.8  357.25-4.15Q 353.8-1.5  347.8 0Q 341.8 1.5  332.5 1.5L 332.5 1.5Q 323.2 1.5  317.2 0Q 311.2-1.5  307.75-4.15Q 304.3-6.8  302.95-10.55Q 301.59999999999997-14.3  301.59999999999997-18.9L 301.59999999999997-18.9L 301.59999999999997-68.4Q 301.59999999999997-70.3  302.45-71.15Q 303.3-72  305.2-72L 305.2-72L 320.9-72Q 322.8-72  323.65-71.15Q 324.5-70.3  324.5-68.4L 324.5-68.4L 324.5-22.8Q 324.5-20.8  326-19.45Q 327.5-18.1  332.7-18.1L 332.7-18.1Q 338-18.1  339.5-19.45Q 341-20.8  341-22.8L 341-22.8L 341-68.4Q 341-70.3  341.84999999999997-71.15Q 342.7-72  344.59999999999997-72L 344.59999999999997-72L 359.79999999999995-72Q 361.7-72  362.54999999999995-71.15Q 363.4-70.3  363.4-68.4L 363.4-68.4ZM 410.7 0L 410.7 0L 394.5 0Q 392.6 0  391.75-0.85Q 390.90000000000003-1.7  390.90000000000003-3.6L 390.90000000000003-3.6L 390.90000000000003-52.7L 376.2-52.7Q 374.3-52.7  373.45-53.55Q 372.6-54.4  372.6-56.3L 372.6-56.3L 372.6-68.4Q 372.6-70.3  373.45-71.15Q 374.3-72  376.2-72L 376.2-72L 429-72Q 430.90000000000003-72  431.75-71.15Q 432.6-70.3  432.6-68.4L 432.6-68.4L 432.6-56.3Q 432.6-54.4  431.75-53.55Q 430.90000000000003-52.7  429-52.7L 429-52.7L 414.3-52.7L 414.3-3.6Q 414.3-1.7  413.45-0.85Q 412.6 0  410.7 0ZM 464.40000000000003-51L 464.40000000000003-51L 459.70000000000005-35.8L 475.40000000000003-35.8L 470.70000000000005-51Q 470.3-51.9  469.85-52.3Q 469.40000000000003-52.7  468.8-52.7L 468.8-52.7L 466.3-52.7Q 465.70000000000005-52.7  465.25000000000006-52.3Q 464.8-51.9  464.40000000000003-51ZM 458.70000000000005-17.6L 458.70000000000005-3.6Q 458.70000000000005-1.7  457.85-0.85Q 457.00000000000006 0  455.1 0L 455.1 0L 440.40000000000003 0Q 438.50000000000006 0  437.65000000000003-0.85Q 436.8-1.7  436.8-3.6L 436.8-3.6L 436.8-30Q 436.8-33  437.75000000000006-36.9Q 438.70000000000005-40.8  440.70000000000005-46L 440.70000000000005-46L 449.40000000000003-68.7Q 450.00000000000006-70.4  451.25000000000006-71.2Q 452.50000000000006-72  454.50000000000006-72L 454.50000000000006-72L 481.40000000000003-72Q 483.3-72  484.55-71.2Q 485.8-70.4  486.40000000000003-68.7L 486.40000000000003-68.7L 495.1-46Q 497.1-40.8  498.05000000000007-36.9Q 499-33  499-30L 499-30L 499-3.6Q 499-1.7  498.15000000000003-0.85Q 497.30000000000007 0  495.40000000000003 0L 495.40000000000003 0L 480.3 0Q 478.3 0  477.35-0.85Q 476.40000000000003-1.7  476.40000000000003-3.6L 476.40000000000003-3.6L 476.40000000000003-17.6L 458.70000000000005-17.6Z"></path><path id="_eEteVYS_4MtFquPhnNs8m" fill="#bae637" transform="matrix(0.6146143766648257, 0, 0, 0.6146143766648257, 155.65999882040697, 347.10774771975315)" text="dao" text-anchor="start" font-size="100" letter-spacing="0" side="left" offset="0" dx="0" dy="0" space="preserve" href="" font-family="Bungee" font-scale="contain" x="0" y="0" data-fl-textpath="" data-uid="o_f2h3an4ln_17" d="M 44.2 0L 44.2 0L 10.5 0Q 8.6 0  7.75-0.85Q 6.9-1.7  6.9-3.6L 6.9-3.6L 6.9-68.4Q 6.9-70.3  7.75-71.15Q 8.6-72  10.5-72L 10.5-72L 44.2-72Q 56.7-72  62.75-67Q 68.8-62  68.8-51.6L 68.8-51.6L 68.8-20.4Q 68.8-10  62.75-5Q 56.7 0  44.2 0ZM 41.5-52.9L 29.6-52.9L 29.6-18.9L 41.5-18.9Q 43.9-18.9  45.05-20.1Q 46.2-21.3  46.2-23.8L 46.2-23.8L 46.2-48.1Q 46.2-50.6  45.05-51.75Q 43.9-52.9  41.5-52.9L 41.5-52.9ZM 107.60000000000001-51L 107.60000000000001-51L 102.9-35.8L 118.60000000000001-35.8L 113.9-51Q 113.5-51.9  113.05000000000001-52.3Q 112.60000000000001-52.7  112-52.7L 112-52.7L 109.5-52.7Q 108.9-52.7  108.45000000000002-52.3Q 108-51.9  107.60000000000001-51ZM 101.9-17.6L 101.9-3.6Q 101.9-1.7  101.05000000000001-0.85Q 100.20000000000002 0  98.30000000000001 0L 98.30000000000001 0L 83.60000000000001 0Q 81.7 0  80.85000000000001-0.85Q 80.00000000000001-1.7  80.00000000000001-3.6L 80.00000000000001-3.6L 80.00000000000001-30Q 80.00000000000001-33  80.95-36.9Q 81.9-40.8  83.9-46L 83.9-46L 92.60000000000001-68.7Q 93.20000000000002-70.4  94.45000000000002-71.2Q 95.70000000000002-72  97.70000000000002-72L 97.70000000000002-72L 124.60000000000001-72Q 126.5-72  127.75-71.2Q 129-70.4  129.60000000000002-68.7L 129.60000000000002-68.7L 138.3-46Q 140.3-40.8  141.25-36.9Q 142.2-33  142.2-30L 142.2-30L 142.2-3.6Q 142.2-1.7  141.35000000000002-0.85Q 140.5 0  138.60000000000002 0L 138.60000000000002 0L 123.5 0Q 121.5 0  120.55000000000001-0.85Q 119.60000000000001-1.7  119.60000000000001-3.6L 119.60000000000001-3.6L 119.60000000000001-17.6L 101.9-17.6ZM 215.50000000000003-53L 215.50000000000003-18.9Q 215.50000000000003-14.3  214.15000000000003-10.55Q 212.8-6.8  209.35000000000002-4.15Q 205.90000000000003-1.5  199.85000000000002 0Q 193.8 1.5  184.50000000000003 1.5L 184.50000000000003 1.5Q 175.20000000000002 1.5  169.10000000000002 0Q 163.00000000000003-1.5  159.55-4.15Q 156.10000000000002-6.8  154.75000000000003-10.55Q 153.40000000000003-14.3  153.40000000000003-18.9L 153.40000000000003-18.9L 153.40000000000003-53Q 153.40000000000003-57.6  154.75000000000003-61.35Q 156.10000000000002-65.1  159.55-67.8Q 163.00000000000003-70.5  169.10000000000002-72Q 175.20000000000002-73.5  184.50000000000003-73.5L 184.50000000000003-73.5Q 193.8-73.5  199.85000000000002-72Q 205.90000000000003-70.5  209.35000000000002-67.8Q 212.8-65.1  214.15000000000003-61.35Q 215.50000000000003-57.6  215.50000000000003-53L 215.50000000000003-53ZM 176.10000000000002-49.4L 176.10000000000002-22.5Q 176.10000000000002-20.5  177.60000000000002-19.15Q 179.10000000000002-17.8  184.50000000000003-17.8L 184.50000000000003-17.8Q 189.90000000000003-17.8  191.40000000000003-19.15Q 192.90000000000003-20.5  192.90000000000003-22.5L 192.90000000000003-22.5L 192.90000000000003-49.4Q 192.90000000000003-51.3  191.40000000000003-52.65Q 189.90000000000003-54  184.50000000000003-54L 184.50000000000003-54Q 179.10000000000002-54  177.60000000000002-52.65Q 176.10000000000002-51.3  176.10000000000002-49.4L 176.10000000000002-49.4Z"></path></svg>